<svg xmlns="http://www.w3.org/2000/svg" viewBox="0 0 1200 800" width="1200" height="800" role="img" aria-label="Right Way Medical Billing">
  <defs>
<linearGradient id="g" x1="0" y1="0" x2="1" y2="1">
  <stop offset="0" stop-color="#0E2E4F"/>
  <stop offset="1" stop-color="#071B2E"/>
</linearGradient>
<pattern id="p" width="56" height="56" patternUnits="userSpaceOnUse">
  <path d="M56 0H0v56" fill="none" stroke="#FFFFFF" stroke-opacity=".05" stroke-width="1.5"/>
</pattern>
  </defs>
  <rect width="1200" height="800" fill="url(#g)"/>
  <rect width="1200" height="800" fill="url(#p)"/>
  <circle cx="1010" cy="150" r="190" fill="#17A2A0" opacity=".08"/>
  <g transform="translate(538 318) scale(8.5)" fill="#17A2A0" opacity=".9">
<path d="M8 0a8 8 0 1 0 0 16A8 8 0 0 0 8 0M4.5 7.5h7a.5.5 0 0 1 0 1h-7a.5.5 0 0 1 0-1"/>
  </g>
  <rect x="538" y="500" width="124" height="4" rx="2" fill="#17A2A0"/>
</svg>