<svg xmlns="http://www.w3.org/2000/svg" viewBox="0 0 1200 800" width="1200" height="800" role="img" aria-label="Right Way Medical Billing">
  <defs>
<linearGradient id="g" x1="0" y1="0" x2="1" y2="1">
  <stop offset="0" stop-color="#0E2E4F"/>
  <stop offset="1" stop-color="#071B2E"/>
</linearGradient>
<pattern id="p" width="56" height="56" patternUnits="userSpaceOnUse">
  <path d="M56 0H0v56" fill="none" stroke="#FFFFFF" stroke-opacity=".05" stroke-width="1.5"/>
</pattern>
  </defs>
  <rect width="1200" height="800" fill="url(#g)"/>
  <rect width="1200" height="800" fill="url(#p)"/>
  <circle cx="1010" cy="150" r="190" fill="#17A2A0" opacity=".08"/>
  <g transform="translate(538 318) scale(8.5)" fill="#17A2A0" opacity=".9">
<path d="M11 6a3 3 0 1 1-6 0 3 3 0 0 1 6 0M8 0a8 8 0 1 0 0 16A8 8 0 0 0 8 0M0 8a8 8 0 1 1 16 0A8 8 0 0 1 0 8m8 7c-1.996 0-3.783-.877-5-2.266.212-.68.66-1.279 1.28-1.707C5.23 10.507 6.581 10 8 10s2.77.507 3.72 1.027c.62.428 1.068 1.026 1.28 1.707A6.98 6.98 0 0 1 8 15"/>
  </g>
  <rect x="538" y="500" width="124" height="4" rx="2" fill="#17A2A0"/>
</svg>